<?xml version="1.0" encoding="UTF-8" standalone="no"?>
<svg
   xmlns:dc="http://purl.org/dc/elements/1.1/"
   xmlns:cc="http://creativecommons.org/ns#"
   xmlns:rdf="http://www.w3.org/1999/02/22-rdf-syntax-ns#"
   xmlns:svg="http://www.w3.org/2000/svg"
   xmlns="http://www.w3.org/2000/svg"
   xmlns:sodipodi="http://sodipodi.sourceforge.net/DTD/sodipodi-0.dtd"
   xmlns:inkscape="http://www.inkscape.org/namespaces/inkscape"
   width="24"
   height="24"
   viewBox="0 0 24 24"
   version="1.1"
   id="svg7"
   sodipodi:docname="call-start.svg"
   inkscape:export-filename="/home/ekleinod/working/git/tt-schiri/refereemanager/refereemanager/src/main/resources/icons/24x24/actions/call-start.png"
   inkscape:export-xdpi="96"
   inkscape:export-ydpi="96"
   inkscape:version="0.92.3 (2405546, 2018-03-11)">
  <metadata
     id="metadata11">
    <rdf:RDF>
      <cc:Work
         rdf:about="">
        <dc:format>image/svg+xml</dc:format>
        <dc:type
           rdf:resource="http://purl.org/dc/dcmitype/StillImage" />
      </cc:Work>
    </rdf:RDF>
  </metadata>
  <sodipodi:namedview
     pagecolor="#ffffff"
     bordercolor="#666666"
     borderopacity="1"
     objecttolerance="10"
     gridtolerance="10"
     guidetolerance="10"
     inkscape:pageopacity="0"
     inkscape:pageshadow="2"
     inkscape:window-width="1920"
     inkscape:window-height="998"
     id="namedview9"
     showgrid="false"
     inkscape:zoom="9.8333333"
     inkscape:cx="12"
     inkscape:cy="12"
     inkscape:window-x="0"
     inkscape:window-y="27"
     inkscape:window-maximized="1"
     inkscape:current-layer="svg7" />
  <defs
     id="defs3">
    <style
       id="current-color-scheme"
       type="text/css">
   .ColorScheme-Text { color:#5c616c; } .ColorScheme-Highlight { color:#5294e2; }
  </style>
  </defs>
  <path
     style="fill:currentColor"
     class="ColorScheme-Text"
     d="M 9.9980469 1.0039062 C 9.4440369 1.0039062 8.9980469 1.4498963 8.9980469 2.0039062 L 8.9980469 4.0039062 C 8.9980469 4.5579162 9.4440369 5.0039062 9.9980469 5.0039062 L 10.466797 5.0039062 C 9.5628969 7.5608063 7.5549469 9.5687762 4.9980469 10.472656 L 4.9980469 10.003906 C 4.9980469 9.4499063 4.5520469 9.0039062 3.9980469 9.0039062 L 1.9980469 9.0039062 C 1.4440469 9.0039062 0.99804688 9.4499063 0.99804688 10.003906 L 0.99804688 13.003906 C 0.99804688 13.557906 1.4219669 14.003906 1.9667969 14.003906 L 1.9980469 14.003906 C 8.6148469 14.003906 13.980947 8.6479563 13.998047 2.0351562 L 13.998047 1.9726562 C 13.998047 1.4308963 13.563327 1.0039062 13.029297 1.0039062 L 9.9980469 1.0039062 z"
     transform="translate(4 4)"
     id="path5" />
</svg>
