<?xml version="1.0" encoding="UTF-8" standalone="no"?>
<!-- Created with Inkscape (http://www.inkscape.org/) -->

<svg
   xmlns:dc="http://purl.org/dc/elements/1.1/"
   xmlns:cc="http://creativecommons.org/ns#"
   xmlns:rdf="http://www.w3.org/1999/02/22-rdf-syntax-ns#"
   xmlns:svg="http://www.w3.org/2000/svg"
   xmlns="http://www.w3.org/2000/svg"
   xmlns:sodipodi="http://sodipodi.sourceforge.net/DTD/sodipodi-0.dtd"
   xmlns:inkscape="http://www.inkscape.org/namespaces/inkscape"
   id="svg7384"
   style="enable-background:new"
   height="24"
   width="24"
   version="1.1"
   sodipodi:docname="document-save-as.svg"
   inkscape:export-filename="/home/ekleinod/working/git/tt-schiri/refereemanager/refereemanager/src/main/resources/icons/24x24/actions/document-save-as.png"
   inkscape:export-xdpi="96"
   inkscape:export-ydpi="96"
   inkscape:version="0.92.3 (2405546, 2018-03-11)">
  <defs
     id="defs9" />
  <sodipodi:namedview
     pagecolor="#ffffff"
     bordercolor="#666666"
     borderopacity="1"
     objecttolerance="10"
     gridtolerance="10"
     guidetolerance="10"
     inkscape:pageopacity="0"
     inkscape:pageshadow="2"
     inkscape:window-width="1920"
     inkscape:window-height="998"
     id="namedview7"
     showgrid="false"
     inkscape:zoom="9.8333333"
     inkscape:cx="12"
     inkscape:cy="12"
     inkscape:window-x="0"
     inkscape:window-y="27"
     inkscape:window-maximized="1"
     inkscape:current-layer="svg7384" />
  <metadata
     id="metadata90">
    <rdf:RDF>
      <cc:Work
         rdf:about="">
        <dc:format>image/svg+xml</dc:format>
        <dc:type
           rdf:resource="http://purl.org/dc/dcmitype/StillImage" />
        <dc:title>Paper Symbolic Icon Theme</dc:title>
      </cc:Work>
    </rdf:RDF>
  </metadata>
  <title
     id="title8473">Paper Symbolic Icon Theme</title>
  <path
     style="opacity:1;fill:#5c616c;fill-opacity:1"
     inkscape:connector-curvature="0"
     d="m 9,5.019 0.01,6 H 6.6682 l 3.3398,4.8613 V 13.894 c 0,-1.0106 0.90116,-1.8438 1.875,-1.8438 h 2.7832 L 15.383,11.019 h -2.375 l -0.01,-6 z m 2.8828,8.0312 c -0.49245,0 -0.875,0.35559 -0.875,0.84375 v 5.2188 c 0,0.48816 0.38255,0.84375 0.875,0.84375 h 6.25 c 0.49245,0 0.875,-0.35559 0.875,-0.84375 v -5.2188 c 0,-0.48816 -0.38255,-0.84375 -0.875,-0.84375 z m 1.125,0.96875 h 3 v 1 h -1 v 3 h 1 v 1 h -3 v -1 h 1 v -3 h -1 z m -9.002,4.0117 v 1.9688 h 6.2578 c -0.15641,-0.26492 -0.25586,-0.56446 -0.25586,-0.88672 v -1.082 h -6.002 z"
     id="path10456" />
</svg>
