<?xml version="1.0" encoding="UTF-8" standalone="no"?>
<!-- Created with Inkscape (http://www.inkscape.org/) -->

<svg
   xmlns:dc="http://purl.org/dc/elements/1.1/"
   xmlns:cc="http://creativecommons.org/ns#"
   xmlns:rdf="http://www.w3.org/1999/02/22-rdf-syntax-ns#"
   xmlns:svg="http://www.w3.org/2000/svg"
   xmlns="http://www.w3.org/2000/svg"
   xmlns:sodipodi="http://sodipodi.sourceforge.net/DTD/sodipodi-0.dtd"
   xmlns:inkscape="http://www.inkscape.org/namespaces/inkscape"
   id="svg3049"
   height="24"
   width="24"
   version="1.1"
   inkscape:version="0.92.3 (2405546, 2018-03-11)"
   sodipodi:docname="office-chart-pie.svg"
   inkscape:export-filename="/home/ekleinod/working/git/tt-schiri/refereemanager/refereemanager/src/main/resources/icons/24x24/actions/office-chart-pie.png"
   inkscape:export-xdpi="96"
   inkscape:export-ydpi="96">
  <sodipodi:namedview
     pagecolor="#ffffff"
     bordercolor="#666666"
     borderopacity="1"
     objecttolerance="10"
     gridtolerance="10"
     guidetolerance="10"
     inkscape:pageopacity="0"
     inkscape:pageshadow="2"
     inkscape:window-width="1920"
     inkscape:window-height="998"
     id="namedview8"
     showgrid="false"
     inkscape:zoom="9.8333333"
     inkscape:cx="12"
     inkscape:cy="12"
     inkscape:window-x="0"
     inkscape:window-y="27"
     inkscape:window-maximized="1"
     inkscape:current-layer="svg3049" />
  <defs
     id="defs3051">
    <style
       id="current-color-scheme"
       type="text/css">.ColorScheme-Text {
        color:#4d4d4d;
      }
      .ColorScheme-Background {
        color:#eff0f1;
      }
      .ColorScheme-Highlight {
        color:#3daee9;
      }
      .ColorScheme-ViewText {
        color:#31363b;
      }
      .ColorScheme-ViewBackground {
        color:#fcfcfc;
      }
      .ColorScheme-ViewHover {
        color:#93cee9;
      }
      .ColorScheme-ViewFocus{
        color:#3daee9;
      }
      .ColorScheme-ButtonText {
        color:#31363b;
      }
      .ColorScheme-ButtonBackground {
        color:#eff0f1;
      }
      .ColorScheme-ButtonHover {
        color:#93cee9;
      }
      .ColorScheme-ButtonFocus{
        color:#3daee9;
      }</style>
  </defs>
  <metadata
     id="metadata3054">
    <rdf:RDF>
      <cc:Work
         rdf:about="">
        <dc:format>image/svg+xml</dc:format>
        <dc:type
           rdf:resource="http://purl.org/dc/dcmitype/StillImage" />
        <dc:title />
      </cc:Work>
    </rdf:RDF>
  </metadata>
  <path
     inkscape:connector-curvature="0"
     class="ColorScheme-Text"
     d="m 12,6 a 6,6 0 0 0 -6,6 6,6 0 0 0 6,6 6,6 0 0 0 6,-6 6,6 0 0 0 -6,-6 z m 0,1 v 5 h 5 A 5,5 0 0 0 16.9785,11.55859 5,5 0 0 1 17,12 5,5 0 0 1 12,17 5,5 0 0 1 7,12 5,5 0 0 1 12,7 Z m 0.44141,0.0215 a 5,5 0 0 1 0.20898,0.0254 5,5 0 0 0 -0.20898,-0.0254 z m 0.48437,0.0684 a 5,5 0 0 1 0.23633,0.0527 5,5 0 0 0 -0.23633,-0.0527 z m 0.47852,0.11329 a 5,5 0 0 1 0.25,0.084 5,5 0 0 0 -0.25,-0.084 z M 13.875,7.36725 A 5,5 0 0 1 14.13672,7.48639 5,5 0 0 0 13.875,7.36725 Z m 0.43945,0.20508 a 5,5 0 0 1 0.25391,0.14453 5,5 0 0 0 -0.25391,-0.14453 z m 0.44141,0.25976 a 5,5 0 0 1 0.2207,0.1582 5,5 0 0 0 -0.2207,-0.1582 z m 0.40039,0.29492 A 5,5 0 0 1 15.35547,8.30084 5,5 0 0 0 15.15625,8.12701 Z M 15.5332,8.46686 A 5,5 0 0 1 15.69922,8.64459 5,5 0 0 0 15.5332,8.46686 Z m 0.33985,0.37695 A 5,5 0 0 1 16.00977,9.0235 5,5 0 0 0 15.87305,8.84381 Z M 16.16797,9.2442 A 5,5 0 0 1 16.2832,9.4317 5,5 0 0 0 16.16797,9.2442 Z m 0.25976,0.44141 a 5,5 0 0 1 0.0859,0.17773 5,5 0 0 0 -0.0859,-0.17773 z m 0.20508,0.43945 a 5,5 0 0 1 0.0801,0.2207 5,5 0 0 0 -0.0801,-0.2207 z m 0.16406,0.4707 a 5,5 0 0 1 0.0605,0.24219 5,5 0 0 0 -0.0605,-0.24219 z m 0.11329,0.47852 a 5,5 0 0 1 0.043,0.27539 5,5 0 0 0 -0.043,-0.27539 z"
     style="color:#4d4d4d;opacity:1;fill:#5c616c;fill-opacity:1"
     id="path4139" />
</svg>
