<?xml version="1.0" encoding="UTF-8" standalone="no"?>
<svg
   xmlns:dc="http://purl.org/dc/elements/1.1/"
   xmlns:cc="http://creativecommons.org/ns#"
   xmlns:rdf="http://www.w3.org/1999/02/22-rdf-syntax-ns#"
   xmlns:svg="http://www.w3.org/2000/svg"
   xmlns="http://www.w3.org/2000/svg"
   xmlns:sodipodi="http://sodipodi.sourceforge.net/DTD/sodipodi-0.dtd"
   xmlns:inkscape="http://www.inkscape.org/namespaces/inkscape"
   width="24"
   height="24"
   viewBox="0 0 24 24"
   version="1.1"
   id="svg7"
   sodipodi:docname="stock_no.svg"
   inkscape:export-filename="/home/ekleinod/working/git/tt-schiri/refereemanager/refereemanager/src/main/resources/icons/24x24/actions/stock_no.png"
   inkscape:export-xdpi="96"
   inkscape:export-ydpi="96"
   inkscape:version="0.92.3 (unknown)">
  <metadata
     id="metadata11">
    <rdf:RDF>
      <cc:Work
         rdf:about="">
        <dc:format>image/svg+xml</dc:format>
        <dc:type
           rdf:resource="http://purl.org/dc/dcmitype/StillImage" />
      </cc:Work>
    </rdf:RDF>
  </metadata>
  <sodipodi:namedview
     pagecolor="#ffffff"
     bordercolor="#666666"
     borderopacity="1"
     objecttolerance="10"
     gridtolerance="10"
     guidetolerance="10"
     inkscape:pageopacity="0"
     inkscape:pageshadow="2"
     inkscape:window-width="1920"
     inkscape:window-height="1000"
     id="namedview9"
     showgrid="false"
     inkscape:zoom="9.8333333"
     inkscape:cx="12"
     inkscape:cy="11.79661"
     inkscape:window-x="0"
     inkscape:window-y="27"
     inkscape:window-maximized="1"
     inkscape:current-layer="svg7" />
  <defs
     id="defs3">
    <style
       type="text/css"
       id="current-color-scheme">
   .ColorScheme-Text { color:#5c616c; } .ColorScheme-Highlight { color:#5294e2; } .ColorScheme-ButtonBackground { color:#d3dae3; }
  </style>
  </defs>
  <path
     style="fill:currentColor;opacity:1"
     class="ColorScheme-Text"
     transform="translate(4 4)"
     d="M 11.003906 3.9824219 A 1 1 0 0 0 10.296875 4.2753906 L 8.0039062 6.5683594 L 5.7207031 4.2851562 A 1 1 0 0 0 5.7109375 4.2753906 A 1 1 0 0 0 5.0097656 3.9863281 L 5 4 A 1 1 0 0 0 4 5 A 1 1 0 0 0 4.2929688 5.7070312 L 6.5859375 8 L 4.2929688 10.292969 A 1 1 0 0 0 4.0039062 10.992188 A 1 1 0 0 0 5.0039062 11.992188 A 1 1 0 0 0 5.7109375 11.699219 L 8.0039062 9.40625 L 10.287109 11.689453 A 1 1 0 0 0 11.003906 11.992188 A 1 1 0 0 0 12.003906 10.992188 A 1 1 0 0 0 11.710938 10.285156 L 9.4101562 7.9863281 L 11.693359 5.703125 A 1 1 0 0 0 12.003906 4.9824219 A 1 1 0 0 0 11.003906 3.9824219 z"
     id="path5" />
</svg>
