<?xml version="1.0" encoding="UTF-8" standalone="no"?>
<!-- Created with Inkscape (http://www.inkscape.org/) -->

<svg
   xmlns:dc="http://purl.org/dc/elements/1.1/"
   xmlns:cc="http://creativecommons.org/ns#"
   xmlns:rdf="http://www.w3.org/1999/02/22-rdf-syntax-ns#"
   xmlns:svg="http://www.w3.org/2000/svg"
   xmlns="http://www.w3.org/2000/svg"
   xmlns:sodipodi="http://sodipodi.sourceforge.net/DTD/sodipodi-0.dtd"
   xmlns:inkscape="http://www.inkscape.org/namespaces/inkscape"
   id="svg7384"
   style="enable-background:new"
   height="24"
   width="24"
   version="1.1"
   inkscape:version="0.92.1 r15371"
   sodipodi:docname="view-list-people.svg"
   inkscape:export-filename="d:\working\git\tt-schiri\refereemanager\refereemanager\src\main\resources\icons\24x24\actions\view-list-people.png"
   inkscape:export-xdpi="96"
   inkscape:export-ydpi="96">
  <sodipodi:namedview
     pagecolor="#ffffff"
     bordercolor="#666666"
     borderopacity="1"
     objecttolerance="10"
     gridtolerance="10"
     guidetolerance="10"
     inkscape:pageopacity="0"
     inkscape:pageshadow="2"
     inkscape:window-width="1920"
     inkscape:window-height="1013"
     id="namedview12"
     showgrid="false"
     inkscape:zoom="9.8333333"
     inkscape:cx="12"
     inkscape:cy="12"
     inkscape:window-x="-9"
     inkscape:window-y="-9"
     inkscape:window-maximized="1"
     inkscape:current-layer="svg7384" />
  <metadata
     id="metadata90">
    <rdf:RDF>
      <cc:Work
         rdf:about="">
        <dc:format>image/svg+xml</dc:format>
        <dc:type
           rdf:resource="http://purl.org/dc/dcmitype/StillImage" />
        <dc:title>Paper Symbolic Icon Theme</dc:title>
      </cc:Work>
    </rdf:RDF>
  </metadata>
  <title
     id="title8473">Paper Symbolic Icon Theme</title>
  <defs
     id="defs7386">
    <filter
       id="filter7554"
       style="color-interpolation-filters:sRGB">
      <feBlend
         id="feBlend7556"
         in2="BackgroundImage"
         mode="darken" />
    </filter>
  </defs>
  <path
     id="path6174-9"
     style="color:#000000;text-indent:0;text-decoration:none;text-decoration-line:none;text-transform:none;enable-background:accumulate;fill:#808080;fill-opacity:1"
     d="m 15,7.9466 c -0.38828,0 -0.75331,0.0893 -1.084,0.23828 C 13.9706,8.44693 14,8.71796 14,8.99542 c 0,1.1021 -0.45422,2.1042 -1.1836,2.8301 0.46,0.7 1.26,1.17 2.18,1.17 1.4327,0 2.5938,-1.1303 2.5938,-2.5254 0,-1.3951 -1.1611,-2.5273 -2.5938,-2.5273 z m 0,6.05 c -0.1961,0 -0.37171,0.0126 -0.55273,0.0215 0.69756,0.39966 1.2291,0.87712 1.6035,1.377 0.94,1.26 0.95,2.6 0.95,2.6 h 3 v -1 c 0,0 0,-3 -5,-3 z"
     inkscape:connector-curvature="0" />
  <path
     id="path6174-8-0"
     style="color:#000000;text-indent:0;text-decoration:none;text-decoration-line:none;text-transform:none;enable-background:accumulate;fill:#808080;fill-opacity:1"
     d="m 10,5.9966 c 1.6569,0 3,1.3432 3,3 0,1.6568 -1.3431,3 -3,3 -1.6569,0 -3,-1.3432 -3,-3 0,-1.6568 1.3431,-3 3,-3 z m 0,8 c 6,-0.01 6,4 6,4 v 1 H 4 v -1 c 0,0 0,-4 6.0002,-4.0034 z"
     inkscape:connector-curvature="0" />
</svg>
