<?xml version="1.0" encoding="UTF-8" standalone="no"?>
<!-- Created with Inkscape (http://www.inkscape.org/) -->

<svg
   xmlns:dc="http://purl.org/dc/elements/1.1/"
   xmlns:cc="http://creativecommons.org/ns#"
   xmlns:rdf="http://www.w3.org/1999/02/22-rdf-syntax-ns#"
   xmlns:svg="http://www.w3.org/2000/svg"
   xmlns="http://www.w3.org/2000/svg"
   xmlns:sodipodi="http://sodipodi.sourceforge.net/DTD/sodipodi-0.dtd"
   xmlns:inkscape="http://www.inkscape.org/namespaces/inkscape"
   id="svg7384"
   style="enable-background:new"
   height="24"
   width="24"
   version="1.1"
   inkscape:version="0.92.1 r15371"
   sodipodi:docname="view-list-trainees.svg"
   inkscape:export-filename="d:\working\git\tt-schiri\refereemanager\refereemanager\src\main\resources\icons\24x24\actions\view-list-trainees.png"
   inkscape:export-xdpi="96"
   inkscape:export-ydpi="96">
  <sodipodi:namedview
     pagecolor="#ffffff"
     bordercolor="#666666"
     borderopacity="1"
     objecttolerance="10"
     gridtolerance="10"
     guidetolerance="10"
     inkscape:pageopacity="0"
     inkscape:pageshadow="2"
     inkscape:window-width="1920"
     inkscape:window-height="1013"
     id="namedview12"
     showgrid="false"
     inkscape:zoom="34.166667"
     inkscape:cx="11.926829"
     inkscape:cy="12"
     inkscape:window-x="-9"
     inkscape:window-y="-9"
     inkscape:window-maximized="1"
     inkscape:current-layer="svg7384" />
  <metadata
     id="metadata90">
    <rdf:RDF>
      <cc:Work
         rdf:about="">
        <dc:format>image/svg+xml</dc:format>
        <dc:type
           rdf:resource="http://purl.org/dc/dcmitype/StillImage" />
        <dc:title>Paper Symbolic Icon Theme</dc:title>
      </cc:Work>
    </rdf:RDF>
  </metadata>
  <title
     id="title8473">Paper Symbolic Icon Theme</title>
  <defs
     id="defs7386">
    <filter
       id="filter7554"
       style="color-interpolation-filters:sRGB">
      <feBlend
         id="feBlend7556"
         in2="BackgroundImage"
         mode="darken" />
    </filter>
    <linearGradient
       id="linearGradient4562">
      <stop
         offset="0"
         style="stop-color:#ffffff"
         id="stop4564" />
      <stop
         offset="1"
         style="stop-color:#d6d6d2"
         id="stop4566" />
    </linearGradient>
    <linearGradient
       id="linearGradient3824">
      <stop
         offset="0"
         style="stop-color:#ffffff"
         id="stop3826" />
      <stop
         offset="1"
         style="stop-color:#c9c9c9"
         id="stop3828" />
    </linearGradient>
  </defs>
  <path
     inkscape:connector-curvature="0"
     style="color:#000000;text-indent:0;text-decoration:none;text-decoration-line:none;text-transform:none;enable-background:accumulate;fill:#808080;fill-opacity:1"
     d="m 17.306641,9.34375 v 0.203125 h -3.363282 c -0.124511,0.880849 -0.522393,1.677622 -1.126953,2.279297 0.46,0.7 1.259688,1.169922 2.179688,1.169922 1.4327,0 2.59375,-1.130291 2.59375,-2.525391 0,-0.406703 -0.107888,-0.7864724 -0.283203,-1.126953 z M 15,13.994141 v 0.002 c -0.1961,0 -0.371714,0.01258 -0.552734,0.02148 0.69756,0.39966 1.229115,0.877073 1.603515,1.376953 0.94,1.26 0.949219,2.59961 0.949219,2.59961 h 3 v -1 c 0,0 0,-3 -5,-3 z"
     id="path6174-9" />
  <path
     inkscape:connector-curvature="0"
     style="color:#000000;text-indent:0;text-decoration:none;text-decoration-line:none;text-transform:none;enable-background:accumulate;fill:#808080;fill-opacity:1"
     d="m 10,5.9960938 c -1.6569,0 -3,1.3431999 -3,3 0,1.6568002 1.3431,3.0000002 3,3.0000002 1.468508,0 2.686408,-1.055802 2.945312,-2.449219 h -2.085937 v -3.21875 h 0.07422 l 1.021484,0.4101562 C 11.428884,6.2823594 10.750907,5.9960938 10,5.9960938 Z m 0,7.9980472 c -6.0002,0.0034 -6,4.001953 -6,4.001953 v 1 h 12 v -1 c 0,0 0,-4.01 -6,-4 z"
     id="path6174-8-0" />
  <path
     style="opacity:1;fill:none;fill-opacity:1;stroke:#808080;stroke-width:1;stroke-linecap:butt;stroke-linejoin:round;stroke-miterlimit:4;stroke-dasharray:none;stroke-dashoffset:0;stroke-opacity:1"
     d="M 10.859375 6.328125 L 10.859375 9.546875 L 17.306641 9.546875 L 17.306641 6.328125 L 17.234375 6.328125 L 14.083984 7.59375 L 10.933594 6.328125 L 10.859375 6.328125 z "
     id="rect938" />
  <rect
     style="opacity:1;fill:none;fill-opacity:1;stroke:#808080;stroke-width:1.20240474;stroke-linecap:butt;stroke-linejoin:round;stroke-miterlimit:4;stroke-dasharray:none;stroke-dashoffset:0;stroke-opacity:1"
     id="rect936"
     width="8.0961018"
     height="8.0961018"
     x="9.6788435"
     y="-5.4975853"
     transform="matrix(0.92795856,0.37268339,-0.92795856,0.37268339,0,0)" />
</svg>
