<?xml version="1.0" encoding="UTF-8" standalone="no"?>
<!-- Created with Inkscape (http://www.inkscape.org/) -->

<svg
   xmlns:dc="http://purl.org/dc/elements/1.1/"
   xmlns:cc="http://creativecommons.org/ns#"
   xmlns:rdf="http://www.w3.org/1999/02/22-rdf-syntax-ns#"
   xmlns:svg="http://www.w3.org/2000/svg"
   xmlns="http://www.w3.org/2000/svg"
   xmlns:sodipodi="http://sodipodi.sourceforge.net/DTD/sodipodi-0.dtd"
   xmlns:inkscape="http://www.inkscape.org/namespaces/inkscape"
   id="svg7384"
   style="enable-background:new"
   height="24"
   width="24"
   version="1.1"
   inkscape:version="0.92.3 (2405546, 2018-03-11)"
   sodipodi:docname="view-referees.svg"
   inkscape:export-filename="/home/ekleinod/working/git/tt-schiri/refereemanager/refereemanager/src/main/resources/icons/24x24/own/view-referees.png"
   inkscape:export-xdpi="96"
   inkscape:export-ydpi="96">
  <sodipodi:namedview
     pagecolor="#ffffff"
     bordercolor="#666666"
     borderopacity="1"
     objecttolerance="10"
     gridtolerance="10"
     guidetolerance="10"
     inkscape:pageopacity="0"
     inkscape:pageshadow="2"
     inkscape:window-width="1920"
     inkscape:window-height="998"
     id="namedview12"
     showgrid="false"
     inkscape:zoom="34.166667"
     inkscape:cx="2.0487806"
     inkscape:cy="12"
     inkscape:window-x="0"
     inkscape:window-y="27"
     inkscape:window-maximized="1"
     inkscape:current-layer="svg7384" />
  <metadata
     id="metadata90">
    <rdf:RDF>
      <cc:Work
         rdf:about="">
        <dc:format>image/svg+xml</dc:format>
        <dc:type
           rdf:resource="http://purl.org/dc/dcmitype/StillImage" />
        <dc:title>Paper Symbolic Icon Theme</dc:title>
      </cc:Work>
    </rdf:RDF>
  </metadata>
  <title
     id="title8473">Paper Symbolic Icon Theme</title>
  <defs
     id="defs7386">
    <filter
       id="filter7554"
       style="color-interpolation-filters:sRGB">
      <feBlend
         id="feBlend7556"
         in2="BackgroundImage"
         mode="darken" />
    </filter>
  </defs>
  <path
     style="color:#000000;text-indent:0;text-decoration:none;text-decoration-line:none;text-transform:none;enable-background:accumulate;fill:#5c616c;fill-opacity:1"
     d="M 15.429688 11.667969 L 13.189453 12.265625 C 13.6551 12.713254 14.28781 12.996094 14.996094 12.996094 C 15.639119 12.996094 16.220656 12.759935 16.673828 12.382812 L 15.429688 11.667969 z M 15 13.994141 L 15 13.996094 C 14.8039 13.996094 14.628286 14.008678 14.447266 14.017578 C 15.144826 14.417238 15.676381 14.894651 16.050781 15.394531 C 16.990781 16.654531 17 17.994141 17 17.994141 L 20 17.994141 L 20 16.994141 C 20 16.994141 20 13.994141 15 13.994141 z "
     id="path6174-9" />
  <path
     style="color:#000000;text-indent:0;text-decoration:none;text-decoration-line:none;text-transform:none;enable-background:accumulate;fill:#5c616c;fill-opacity:1"
     d="M 9.0214844 6.1738281 C 7.847733 6.5810165 7 7.6838053 7 8.9960938 C 7 10.652894 8.3431 11.996094 10 11.996094 C 10.235148 11.996094 10.462075 11.963274 10.681641 11.912109 C 10.565897 11.756892 10.475338 11.579676 10.421875 11.380859 L 9.0214844 6.1738281 z M 10 13.994141 C 3.9998 13.997541 4 17.996094 4 17.996094 L 4 18.996094 L 16 18.996094 L 16 17.996094 C 16 17.996094 16 13.986094 10 13.996094 L 10 13.994141 z "
     id="path6174-8-0" />
  <path
     style="fill:none;fill-opacity:1;fill-rule:evenodd;stroke:#5c616c;stroke-width:1.00000072;stroke-linecap:butt;stroke-linejoin:miter;stroke-miterlimit:4;stroke-dasharray:none;stroke-opacity:1"
     d="M 13.820312 1.9589844 C 13.71604 1.9652621 13.610839 1.9817365 13.505859 2.0097656 L 9.7929688 3.0019531 C 8.9531328 3.2261859 8.4598178 4.08244 8.6855469 4.921875 L 10.421875 11.380859 C 10.647604 12.220294 11.505867 12.714467 12.345703 12.490234 L 15.429688 11.667969 L 13.486328 10.548828 C 12.732369 10.115078 12.476034 9.1588669 12.912109 8.40625 L 15.601562 3.765625 L 15.427734 3.1210938 C 15.230221 2.3865881 14.550219 1.9150406 13.820312 1.9589844 z "
     id="rect2990" />
  <rect
     ry="1.5700792"
     y="-7.4148245"
     x="15.386739"
     height="9.8336554"
     width="6.975493"
     id="rect3767"
     style="fill:none;fill-opacity:1;fill-rule:evenodd;stroke:#5c616c;stroke-width:1.00000238;stroke-linecap:butt;stroke-linejoin:miter;stroke-miterlimit:4;stroke-dasharray:none;stroke-opacity:1"
     transform="matrix(0.86679535,0.49866404,-0.50133719,0.865252,0,0)" />
</svg>
