<?xml version="1.0" encoding="UTF-8" standalone="no"?>
<svg
   xmlns:dc="http://purl.org/dc/elements/1.1/"
   xmlns:cc="http://creativecommons.org/ns#"
   xmlns:rdf="http://www.w3.org/1999/02/22-rdf-syntax-ns#"
   xmlns:svg="http://www.w3.org/2000/svg"
   xmlns="http://www.w3.org/2000/svg"
   xmlns:sodipodi="http://sodipodi.sourceforge.net/DTD/sodipodi-0.dtd"
   xmlns:inkscape="http://www.inkscape.org/namespaces/inkscape"
   width="24"
   height="24"
   viewBox="0 0 24 24"
   version="1.1"
   id="svg7"
   sodipodi:docname="view-statustypes.svg"
   inkscape:export-filename="/home/ekleinod/working/git/tt-schiri/refereemanager/refereemanager/src/main/resources/icons/24x24/own/view-statustypes.png"
   inkscape:export-xdpi="96"
   inkscape:export-ydpi="96"
   inkscape:version="0.92.3 (2405546, 2018-03-11)">
  <metadata
     id="metadata11">
    <rdf:RDF>
      <cc:Work
         rdf:about="">
        <dc:format>image/svg+xml</dc:format>
        <dc:type
           rdf:resource="http://purl.org/dc/dcmitype/StillImage" />
      </cc:Work>
    </rdf:RDF>
  </metadata>
  <sodipodi:namedview
     pagecolor="#ffffff"
     bordercolor="#666666"
     borderopacity="1"
     objecttolerance="10"
     gridtolerance="10"
     guidetolerance="10"
     inkscape:pageopacity="0"
     inkscape:pageshadow="2"
     inkscape:window-width="1920"
     inkscape:window-height="998"
     id="namedview9"
     showgrid="false"
     inkscape:zoom="7.9895833"
     inkscape:cx="7.3599258"
     inkscape:cy="13.94343"
     inkscape:window-x="0"
     inkscape:window-y="27"
     inkscape:window-maximized="1"
     inkscape:current-layer="svg7" />
  <defs
     id="defs3">
    <style
       type="text/css"
       id="current-color-scheme">
   .ColorScheme-Text { color:#5c616c; } .ColorScheme-Highlight { color:#5294e2; } .ColorScheme-ButtonBackground { color:#d3dae3; }
  </style>
    <style
       id="current-color-scheme-3"
       type="text/css">
   .ColorScheme-Text { color:#5c616c; } .ColorScheme-Highlight { color:#5294e2; } .ColorScheme-ButtonBackground { color:#d3dae3; }
  </style>
    <style
       id="current-color-scheme-1"
       type="text/css">
   .ColorScheme-Text { color:#5c616c; } .ColorScheme-Highlight { color:#5294e2; } .ColorScheme-ButtonBackground { color:#d3dae3; }
  </style>
  </defs>
  <path
     id="path5"
     d="m 21.001239,14.000016 a 0.99878523,0.99878523 0 0 0 -0.706172,0.292612 l -2.290184,2.290184 -2.280428,-2.28043 a 0.99878523,0.99878523 0 0 0 -0.0098,-0.0098 0.99878523,0.99878523 0 0 0 -0.700321,-0.288711 l -0.0098,0.01365 a 0.99878523,0.99878523 0 0 0 -0.998785,0.998785 0.99878523,0.99878523 0 0 0 0.292613,0.706172 l 2.290184,2.290184 -2.290184,2.290183 A 0.99878523,0.99878523 0 0 0 14.009651,21.001215 0.99878523,0.99878523 0 0 0 15.008436,22 0.99878523,0.99878523 0 0 0 15.714609,21.707387 l 2.290182,-2.290184 2.28043,2.28043 A 0.99878523,0.99878523 0 0 0 21.001147,22 0.99878523,0.99878523 0 0 0 21.999932,21.001215 0.99878523,0.99878523 0 0 0 21.70732,20.295042 l -2.297919,-2.296 2.280429,-2.280429 A 0.99878523,0.99878523 0 0 0 22,14.998785 0.99878523,0.99878523 0 0 0 21.001215,14 Z"
     class="ColorScheme-Text"
     style="color:#5c616c;opacity:1;fill:currentColor;stroke-width:0.9987852"
     inkscape:connector-curvature="0" />
  <path
     id="path5-2"
     d="m 10.736289,2.2603371 c -0.07341,-0.013796 -0.149646,-0.014589 -0.228016,0.00153 -0.167013,0.036091 -0.320925,0.1301203 -0.429207,0.2622931 L 5.2862546,8.0084677 3.5694267,6.2916398 c -0.2871529,-0.287191 -0.8096561,-0.287168 -1.0968623,0 -0.2871681,0.287176 -0.287191,0.809656 0,1.096862 L 4.7616683,9.6776058 5.3577891,10.249882 5.8823754,9.6299158 11.223618,3.5256393 c 0.378841,-0.4124309 0.02655,-1.1687142 -0.487329,-1.2652671 z"
     class="ColorScheme-Text"
     style="color:#5c616c;opacity:1;fill:currentColor;stroke:#5c616c;stroke-width:0.5;stroke-linecap:butt;stroke-linejoin:round;stroke-miterlimit:4;stroke-dasharray:none;stroke-opacity:1"
     inkscape:connector-curvature="0" />
  <path
     style="fill:none;fill-rule:evenodd;stroke:#5c616c;stroke-width:1.3;stroke-linecap:round;stroke-linejoin:miter;stroke-opacity:1;stroke-miterlimit:4;stroke-dasharray:none"
     d="M 2,22 22,2"
     id="path931"
     inkscape:connector-curvature="0" />
</svg>
