<?xml version="1.0" encoding="UTF-8" standalone="no"?>
<svg
   xmlns:dc="http://purl.org/dc/elements/1.1/"
   xmlns:cc="http://creativecommons.org/ns#"
   xmlns:rdf="http://www.w3.org/1999/02/22-rdf-syntax-ns#"
   xmlns:svg="http://www.w3.org/2000/svg"
   xmlns="http://www.w3.org/2000/svg"
   xmlns:sodipodi="http://sodipodi.sourceforge.net/DTD/sodipodi-0.dtd"
   xmlns:inkscape="http://www.inkscape.org/namespaces/inkscape"
   version="1.1"
   id="Layer_1"
   x="0px"
   y="0px"
   viewBox="0 0 24 24"
   enable-background="new 0 0 1506 1506.0001"
   xml:space="preserve"
   sodipodi:docname="view-sextypes.svg"
   width="24"
   height="24"
   inkscape:version="0.92.3 (2405546, 2018-03-11)"
   inkscape:export-filename="/home/ekleinod/working/git/tt-schiri/refereemanager/refereemanager/src/main/resources/icons/24x24/own/view-sextypes.png"
   inkscape:export-xdpi="95.999992"
   inkscape:export-ydpi="95.999992"><metadata
   id="metadata9"><rdf:RDF><cc:Work
       rdf:about=""><dc:format>image/svg+xml</dc:format><dc:type
         rdf:resource="http://purl.org/dc/dcmitype/StillImage" /><dc:title></dc:title></cc:Work></rdf:RDF></metadata><defs
   id="defs7" /><sodipodi:namedview
   pagecolor="#ffffff"
   bordercolor="#666666"
   borderopacity="1"
   objecttolerance="10"
   gridtolerance="10"
   guidetolerance="10"
   inkscape:pageopacity="0"
   inkscape:pageshadow="2"
   inkscape:window-width="1920"
   inkscape:window-height="998"
   id="namedview5"
   showgrid="false"
   inkscape:zoom="15.979167"
   inkscape:cx="-7.8579639"
   inkscape:cy="9.8687681"
   inkscape:window-x="0"
   inkscape:window-y="27"
   inkscape:window-maximized="1"
   inkscape:current-layer="Layer_1" />
<path
   style="fill:#5c616c;fill-opacity:1;stroke-width:0.01016899"
   d="m 14.686855,2.0000725 c -0.853814,0.8538326 -1.331096,1.3326756 -2.18491,2.1865084 h 3.012842 l -2.212081,2.2120817 c -0.731272,-0.4540309 -1.594875,-0.717648 -2.518961,-0.717648 -2.640154,0 -4.7789911,2.1404292 -4.7789911,4.7805904 0,2.275569 1.5912933,4.176597 3.7209002,4.659117 -6.26e-5,0.0016 1.41e-4,0.0032 0,0.0048 v 0.0016 0.0016 c -1.3e-4,9e-4 1.065e-4,0.0023 0,0.0032 v 0.0016 l 0.0016,0.0016 v 1.369765 H 6.2748708 v 2.200893 h 3.4523817 v 3.294148 h 2.2008935 v -3.294164 h 3.44439 v -2.200893 h -3.44439 v -1.368166 c -0.0078,-0.01278 0.0018,-0.0256 0.0032,-0.03836 2.085063,-0.514552 3.632993,-2.392768 3.632993,-4.63674 0,-0.9240865 -0.261993,-1.7860918 -0.71605,-2.5173621 L 17.060371,5.7321574 V 8.7450033 C 17.914187,7.8911708 18.393057,7.4122614 19.246876,6.5584949 V 4.1865809 2.0000725 h -2.186508 z m -3.90311,5.776346 c 1.483107,0 2.686785,1.202053 2.686785,2.6851865 0,1.483065 -1.203678,2.686784 -2.686785,2.686784 -1.4830998,0 -2.6851855,-1.203719 -2.6851855,-2.686784 0,-1.4831335 1.2020857,-2.6851865 2.6851855,-2.6851865 z"
   id="path2"
   inkscape:connector-curvature="0" />
</svg>